<svg width="33" height="45" viewBox="0 0 33 45" fill="none" xmlns="http://www.w3.org/2000/svg">
<path d="M17 15C19.4909 15 21.7273 16 23.3636 17.6364C25 19.2727 26 21.5091 26 24C26 26.4909 25 28.7273 23.3636 30.3636C21.7273 32 19.4909 33 17 33C14.5091 33 12.2727 32 10.6364 30.3636C9 28.7273 8 26.4909 8 24C8 21.5091 9 19.2727 10.6364 17.6364C12.2727 16 14.5091 15 17 15ZM17.6909 22.1636V21.4182C17.6909 21.0727 17.9273 20.9818 18.0909 20.9818C18.2545 20.9818 19.1273 20.9818 19.1273 20.9818V19.4H17.7091C16.1273 19.4 15.7818 20.5636 15.7818 21.3273V22.1636H14.8727V23.2727V24H15.8C15.8 26.0909 15.8 28.6 15.8 28.6H17.6364C17.6364 28.6 17.6364 26.0545 17.6364 24H19L19.0545 23.2727L19.1636 22.1636H17.6909Z" fill="white" fill-opacity="0.9"/>
</svg>
